<svg width="236" height="270" viewBox="0 0 236 270" fill="none" xmlns="http://www.w3.org/2000/svg">
<path fill-rule="evenodd" clip-rule="evenodd" d="M118 0.0894928L236 67.5181V202.482L118 269.91L0 202.482V67.5181L118 0.0894928ZM12 81.3391V124.661L49.9066 103L12 81.3391ZM62 109.911L18.0934 135L112 188.661V138.482L62 109.911ZM124 138.482V188.661L217.907 135L174 109.911L124 138.482ZM186.093 103L224 124.661V81.3391L186.093 103ZM217.907 71L174 96.0895L124 67.5181V17.3391L217.907 71ZM112 17.3391V67.5181L62 96.0895L18.0934 71L112 17.3391ZM118 77.9105L74.0934 103L118 128.089L161.907 103L118 77.9105ZM224 145.339V179.518L124 236.661V202.482L224 145.339ZM112 202.482L12 145.339V179.518L112 236.661V202.482Z" fill="#7FC9EF"/>
</svg>
