<svg width="150" height="150" xmlns="http://www.w3.org/2000/svg"><defs><linearGradient x1="50%" y1="0%" x2="50%" y2="100%" id="a"><stop stop-color="#B6ECF0" offset="0%"/><stop stop-color="#FF8F0F" offset="100%"/></linearGradient></defs><path d="M127.13 104.38l-21.9 14.16-34.62-9.17-13 8.81L22.87 109l.47-33.3L45.6 61.54l5.24 1.4.57-23.43 27.76-9.46 26.35 11.79-.14 23.3 20.78 5.55.97 33.69zm-26 5.28l-.15-21.29-19.31-4.57-3.89 1.42-.14 18.36 23.49 6.08zm-71.24-6.44l25.56 7L55.26 89 30 82.53l-.11 20.69zm20.72-29.33l.11-4.49-3.5-.81-13.93 8.13 23.21 6.47 5.95-3.52-11.84-5.78zm6.5-3.89l18 8.4V57.9l-18-8.66V70zm21.27-33.77l-19 6.62 18.55 8.62 19.35-7.35-18.9-7.89zm27 35.81v3.18l-14.4 5.23 13.77 3.35 14.54-8.12-13.91-3.64z" fill="url(#a)" fill-rule="nonzero"/></svg>