<svg width="150" height="150" xmlns="http://www.w3.org/2000/svg"><defs><linearGradient x1="50%" y1="0%" x2="50%" y2="100%" id="a"><stop stop-color="#B6ECF0" offset="0%"/><stop stop-color="#FF8F0F" offset="100%"/></linearGradient></defs><path d="M98.63 105.5s-14.21 6.69-18.43 13.9l-26.61.08-6-35.08.33-.33c1.48-4.44 14.12-42.28 15.72-49.44 3 .65 4.86 3 6 5.62 1.16-4.15 2-7.42 2.41-9C80 32.92 81.32 40.13 79.33 47c-.74 2.55-3.44 11-3.44 11l-4.44 3.72L73 64.24l8.17-3.73 15.17 5.09s2.76 5.85 4.85 10.09a4.75 4.75 0 01-1.49 6.15 17.49 17.49 0 013.9 1.53c-4.89 8.87-4.97 22.13-4.97 22.13zm-6.78-24.29c-.82-1.69-2.43-4.79-2.43-4.79l-6.78-1.77-8 5.28.29 10.25 10.34 2.68s1.78-7.81 7.42-10.51a3.55 3.55 0 01-.84-1.14zM47.13 42.73c4.62 0 7.27 2.73 8.93 5.41C53.42 55.38 46.78 76 46.78 76s.64-26 .35-33.27z" fill="url(#a)" fill-rule="nonzero"/></svg>