<svg width="150" height="150" xmlns="http://www.w3.org/2000/svg"><defs><linearGradient x1="50%" y1="0%" x2="50%" y2="100%" id="a"><stop stop-color="#B6ECF0" offset="0%"/><stop stop-color="#FF8F0F" offset="100%"/></linearGradient></defs><path d="M120.12 116c-6.1 6.36-15.55-.75-13.75-7.35l-10.89-9.13-14 7-2.94-4.74 6.32-6.48-9.25-9.17-8.46 8.49 3.27 5.81c-8.23 8.19-18.54 2.57-18.54 2.57l-10.47 9.2 1.48 3c-9.23 9.08-21-3-12-11.89l2.9 1.33L43 94.06s-5.13-11.38 2.31-18.7L51 78.68l8.92-8.09-24.65-24.4-1.7-15 15.11.62 26.16 25.25L99.5 34.7l17-2.7-2.5 15.72-23.91 24 9.22 8.89 5.31-5.44 4.88 3-6.67 12.69 10 11.91c6.82-1.43 12.94 7.34 7.29 13.23zm-12.49-68.82l3.21-9.49-9.84 2.78S60.59 79 56 83.19c-4.59 4.19 2.34 11.87 7.53 6.91 5.19-4.96 44.1-42.92 44.1-42.92z" fill="url(#a)" fill-rule="nonzero"/></svg>